<svg width="243" height="74" viewBox="0 0 243 74" fill="none" xmlns="http://www.w3.org/2000/svg">
<path d="M40.6204 15.3237C38.6393 13.0548 36.464 10.963 34.1193 9.07222C33.0538 8.21351 31.9529 7.39694 30.8166 6.62253C29.6353 7.37446 28.4871 8.17417 27.3722 9.02164C25.0059 10.8192 22.7987 12.8172 20.775 14.9933C20.1512 15.6677 19.5459 16.355 18.9592 17.0552C24.2236 20.8883 28.1865 26.2428 30.3141 32.3974C32.6426 26.2493 36.8132 20.9705 42.2558 17.2828C41.7264 16.6197 41.1812 15.9667 40.6204 15.3237ZM30.5333 22.8785C28.7987 20.7911 26.805 18.9333 24.6004 17.3503C26.4697 15.2724 28.5046 13.3497 30.685 11.6012C32.8371 13.4239 34.836 15.42 36.6618 17.5694C34.4012 19.0709 32.3417 20.8551 30.5333 22.8785V22.8785Z" fill="white"/>
<path d="M54.049 44.6136C52.6227 45.288 51.1615 45.8972 49.6655 46.4412C45.9774 47.7818 42.1469 48.692 38.2499 49.1539L37.8335 49.2028C35.996 49.4064 34.1489 49.5111 32.3002 49.5164L32.285 49.4051C32.0938 47.9868 31.9981 46.5573 31.9984 45.1261C31.9984 44.9575 31.9984 44.8007 31.9984 44.6389C32.0277 42.5684 32.2592 40.5056 32.6897 38.4801V38.4801C33.9789 32.4519 36.996 26.9298 41.3723 22.5883C42.4693 21.4974 43.6442 20.4876 44.8875 19.567C46.0931 21.277 47.1922 23.0597 48.1785 24.9048C43.4548 27.0815 39.7833 31.0377 37.965 35.9107V35.9107C37.1502 38.1007 36.7346 40.419 36.7376 42.7557C36.7376 43.2918 36.759 43.8218 36.8017 44.3455C37.4682 44.2736 38.1302 44.1887 38.7878 44.091C42.2698 43.5752 45.6891 42.7006 48.9912 41.4811C50.4815 40.9315 51.9382 40.3133 53.3612 39.6266C53.6714 41.2653 53.9007 42.9276 54.049 44.6136Z" fill="white"/>
<path d="M28.5677 44.302C28.5677 44.4285 28.5677 44.5532 28.5677 44.6797C28.55 46.2992 28.4091 47.9151 28.1462 49.5133H28.1243C26.1576 49.4265 24.1975 49.2267 22.2538 48.9148L22.1611 48.8996H22.124H22.092C18.308 48.2789 14.6063 47.2326 11.0574 45.7806C9.56812 45.1737 8.11595 44.4993 6.70087 43.7575C6.86946 42.375 7.09426 41.0105 7.37525 39.664C7.84934 37.3513 8.48309 35.0743 9.27195 32.8493C10.7703 33.3906 12.1966 34.1137 13.5189 35.0023C12.7832 37.1297 12.1902 39.3038 11.7436 41.5101C14.6819 42.5967 17.7143 43.4094 20.8022 43.9379C21.1214 43.9929 21.4412 44.0452 21.7615 44.0947C22.3381 44.1823 22.9181 44.2632 23.5014 44.329H23.5621C23.7248 43.3018 23.8066 42.2634 23.8066 41.2235C23.8026 37.6658 22.8447 34.1742 21.0326 31.1126C19.2206 28.0509 16.6206 25.5312 13.5037 23.816C14.4186 22.275 15.413 20.7826 16.4828 19.3448C20.2543 22.3161 23.3018 26.1052 25.3953 30.4262C27.4887 34.7472 28.5735 39.4871 28.5677 44.2885V44.302Z" fill="white"/>
<circle cx="30.5728" cy="32.5888" r="29.5258" stroke="white" stroke-width="2.09403"/>
<path d="M74.2411 64.6033V56.113C74.2411 52.3094 76.2788 50.6792 79.3353 50.0679V64.6033C79.3353 66.0297 78.3164 67.1165 76.8221 67.1165C75.3278 67.1165 74.2411 66.0976 74.2411 64.6033ZM79.3353 26.5668V48.302C75.192 49.1849 72.4751 51.0868 72.4751 56.113V64.6033C72.4751 67.8636 74.8524 70.3768 78.5202 70.3768C81.9842 70.3768 84.4974 67.9315 84.4974 64.6033V48.9812C87.6218 48.0303 89.7953 46.0605 89.7953 41.9172V39.2683H87.9614V41.9172C87.9614 44.9058 86.7388 46.3322 84.5653 47.0793V26.5668C84.5653 22.3556 81.5088 20.5896 78.5202 20.5896C75.4637 20.5896 72.4751 22.3556 72.4751 26.5668V39.2683H74.2411V26.5668C74.2411 24.9366 75.3958 23.782 76.8221 23.782C78.1127 23.782 79.3353 25.0725 79.3353 26.5668ZM78.0447 16.9218C80.0824 16.9218 81.1012 15.3596 81.1012 13.7973C81.1012 12.2351 80.0824 10.6729 78.0447 10.6729C76.2788 10.6729 74.8524 12.0993 74.8524 13.7973C74.8524 15.4954 76.3467 16.9218 78.0447 16.9218ZM87.9964 24.9366V39.2683H89.7624V24.9366C89.7624 24.1895 90.2379 23.8499 90.6454 23.8499C91.1209 23.8499 91.5963 24.1895 91.5963 24.9366V44.8379C91.5963 47.7586 93.8378 50.0679 96.7584 50.0679C99.6791 50.0679 101.988 47.7586 101.988 44.8379V39.2683H100.222V44.8379C100.222 45.7888 99.4753 46.536 98.5244 46.536C97.5735 46.536 96.7584 45.7888 96.7584 44.8379V24.9366C96.7584 22.5593 94.7887 20.5217 92.4114 20.5217C90.0341 20.5217 88.0644 22.4914 87.9964 24.9366ZM92.4114 16.9218C94.4491 16.9218 95.4 15.3596 95.4 13.7973C95.4 12.2351 94.4491 10.6729 92.4114 10.6729C90.7133 10.6729 89.287 12.0993 89.287 13.7973C89.287 15.4954 90.7133 16.9218 92.4114 16.9218ZM122.072 29.3516C122.072 26.1592 122.344 25.0046 122.752 25.0046C123.363 25.0046 124.246 28.3328 124.246 31.1855C124.246 33.5628 123.906 36.2797 123.227 37.9777C122.344 35.3288 122.072 32.7477 122.072 29.3516ZM124.993 41.3739C125.944 39.0645 126.759 34.5816 126.759 30.3704C126.759 25.2762 125.604 20.5217 122.14 20.5217C118.948 20.5217 118.133 26.4309 118.133 30.3704C118.133 35.125 119.016 39.7437 120.986 42.4606C119.491 44.6341 117.657 46.2643 115.416 46.2643C109.031 46.2643 108.963 31.5251 108.963 24.9366C108.963 22.0839 106.79 20.7254 104.616 20.7254C102.443 20.7254 100.201 22.1518 100.201 24.9366V39.2683H101.967V24.9366C101.967 24.4612 102.375 23.9857 102.85 23.9857C103.326 23.9857 103.801 24.4612 103.801 24.9366C103.801 34.7854 104.752 49.5246 115.416 50.0679C118.812 49.7962 121.461 47.5548 123.363 44.6341C124.042 45.3134 125.468 45.8567 126.895 45.8567C129.272 45.8567 131.853 44.4304 131.853 40.0833V39.2683H130.087V40.0833C130.087 41.7814 128.729 42.8002 127.37 42.8002C126.487 42.8002 125.536 42.3927 124.993 41.3739ZM139.286 24.0536C141.459 24.0536 143.225 25.7517 143.225 27.9252V36.7551C143.225 40.9663 142.886 46.536 139.286 46.536C137.112 46.536 135.278 44.77 135.278 42.5965V27.9252C135.278 25.7517 137.112 24.0536 139.286 24.0536ZM147.572 20.5217C145.671 20.5217 144.04 21.7443 143.429 23.4423C142.071 21.6764 139.965 20.5217 137.588 20.5217C133.445 20.5217 130.116 23.8499 130.116 27.9931V42.5965C130.116 46.7397 133.445 50.0679 137.588 50.0679C143.633 50.0679 144.991 44.1587 144.991 38.3853V27.9931V24.9366C144.991 24.1895 145.467 23.8499 145.874 23.8499C146.35 23.8499 146.757 24.1895 146.757 24.9366V44.8379C146.757 47.7586 149.067 50.0679 151.987 50.0679C154.908 50.0679 157.217 47.7586 157.217 44.8379V39.2683H155.451V44.8379C155.451 45.7888 154.636 46.536 153.685 46.536C152.734 46.536 151.987 45.7888 151.987 44.8379V24.9366C151.987 22.5593 149.95 20.5217 147.572 20.5217ZM159.87 4.62782C157.492 4.62782 155.455 6.59757 155.455 8.97485V39.2683H157.221V8.97485C157.221 8.29563 157.696 7.95602 158.104 7.95602C158.579 7.95602 159.054 8.29563 159.054 8.97485V44.8379C159.054 47.7586 161.296 50.0679 164.217 50.0679C167.137 50.0679 169.447 47.7586 169.447 44.8379V39.2683H167.681V44.8379C167.681 45.7888 166.933 46.536 165.983 46.536C165.032 46.536 164.217 45.7888 164.217 44.8379V8.97485C164.217 6.59757 162.247 4.62782 159.87 4.62782ZM177.304 23.5103C179.818 23.5103 181.244 25.5479 181.244 28.0611V42.5285C181.244 45.0417 179.818 47.0114 177.304 47.0114C174.791 47.0114 173.365 45.0417 173.365 42.5285V28.0611C173.365 25.5479 174.791 23.5103 177.304 23.5103ZM186.949 30.71C186.949 25.0046 183.01 20.5217 177.304 20.5217C171.599 20.5217 167.659 25.0046 167.659 30.71V39.8116C167.659 45.5171 171.599 50.0679 177.304 50.0679C181.312 50.0679 184.504 47.7586 185.998 44.3625C186.338 44.4304 186.61 44.4304 186.949 44.4304C189.87 44.4304 192.111 42.1889 192.111 39.2683H190.345C190.345 40.2192 189.53 40.8984 188.58 40.8984C187.629 40.8984 186.949 40.2192 186.949 39.2683V30.71ZM202.706 34.0382C202.706 30.2346 203.386 22.6952 206.782 22.6952C207.733 22.6952 208.14 23.2386 208.14 24.1216C208.14 27.0422 203.521 33.7665 202.706 34.0382ZM207.121 34.242L207.461 33.9703C210.382 31.593 212.215 28.0611 212.215 25.0046C212.215 22.4235 210.857 20.5217 207.868 20.5217C202.027 20.5217 200.872 27.3818 200.872 32.2043V45.653C200.872 46.4001 200.465 46.7397 200.057 46.7397C199.582 46.7397 199.106 46.3322 199.106 45.653V8.97485C199.106 6.59757 197.205 4.62782 194.759 4.62782C192.314 4.62782 190.344 6.59757 190.344 8.97485V39.2683H192.11V8.97485C192.11 8.29563 192.586 7.95602 192.993 7.95602C193.469 7.95602 193.944 8.29563 193.944 8.97485V45.653C193.944 48.5736 196.186 50 198.359 50C200.533 50 202.706 48.5736 202.706 45.7209V36.5514C203.114 36.2797 203.725 36.2118 204.065 36.2118C206.51 36.2118 206.917 38.9966 206.917 41.7814V44.9058C206.917 47.8265 209.159 50.0679 212.08 50.0679C215 50.0679 217.31 47.7586 217.31 44.8379V39.2683H215.544V44.8379C215.544 45.7888 214.729 46.536 213.778 46.536C212.827 46.536 212.08 45.7888 212.08 44.8379V40.0154C212.08 36.6193 210.178 34.7854 207.597 34.3099L207.121 34.242ZM224.72 24.0536C226.893 24.0536 228.659 25.7517 228.659 27.9252V36.7551C228.659 40.9663 228.319 46.536 224.72 46.536C222.546 46.536 220.712 44.77 220.712 42.5965V27.9252C220.712 25.7517 222.546 24.0536 224.72 24.0536ZM233.006 20.5217C231.104 20.5217 229.474 21.7443 228.863 23.4423C227.504 21.6764 225.399 20.5217 223.021 20.5217C218.878 20.5217 215.55 23.8499 215.55 27.9931V42.5965C215.55 46.7397 218.878 50.0679 223.021 50.0679C229.067 50.0679 230.425 44.1587 230.425 38.3853V27.9931V24.9366C230.425 24.1895 230.9 23.8499 231.308 23.8499C231.783 23.8499 232.191 24.1895 232.191 24.9366V44.8379C232.191 47.7586 234.5 50.0679 237.421 50.0679C240.342 50.0679 242.651 47.7586 242.651 44.8379V39.2683H240.885V44.8379C240.885 45.7888 240.07 46.536 239.119 46.536C238.168 46.536 237.421 45.7888 237.421 44.8379V24.9366C237.421 22.5593 235.383 20.5217 233.006 20.5217Z" fill="white"/>
</svg>
